<?xml version="1.0" encoding="UTF-8" standalone="no"?>
<svg width="17px" height="17px" viewBox="0 0 17 17" version="1.1" xmlns="http://www.w3.org/2000/svg" xmlns:xlink="http://www.w3.org/1999/xlink" xmlns:sketch="http://www.bohemiancoding.com/sketch/ns">
    <!-- Generator: Sketch 3.3.2 (12043) - http://www.bohemiancoding.com/sketch -->
    <title>Rectangle 71 + Rectangle 71 Copy 8</title>
    <desc>Created with Sketch.</desc>
    <defs></defs>
    <g id="UI" stroke="none" stroke-width="1" fill="none" fill-rule="evenodd" sketch:type="MSPage">
        <g id="UC16-CHAT-WINDOW-+-CONTROLS" sketch:type="MSArtboardGroup" transform="translate(-23.000000, -480.000000)">
            <g id="Duel-request" sketch:type="MSLayerGroup" transform="translate(0.000000, 466.000000)">
                <g id="Rectangle-71-+-Rectangle-71-Copy-8" transform="translate(23.000000, 14.000000)" sketch:type="MSShapeGroup">
                    <path d="M4.53492824,9.73500519 L4.21663899,10.1111652 C4.01633084,10.347893 3.68743609,10.3578792 3.4733213,10.1437644 C3.25771373,9.92815682 2.91163418,9.93007324 2.69699678,10.1447106 L2.50504472,10.3366627 C2.28968696,10.5520205 2.19452638,10.9596492 2.29088862,11.2487359 L2.52346375,11.9464613 C2.62191766,12.241823 2.52386024,12.643982 2.30911824,12.858724 L0.372943921,14.7948983 C0.153880961,15.0139612 0.159319657,15.3589236 0.375440471,15.5750444 L1.14355429,16.3431583 C1.36299244,16.5625964 1.70895844,16.5603968 1.92370044,16.3456548 L3.85987476,14.4094805 C4.07893772,14.1904175 4.48305067,14.0987727 4.77213742,14.195135 L5.46986282,14.4277101 C5.76522456,14.526164 6.16729867,14.4281914 6.38193605,14.213554 L6.57388811,14.021602 C6.78924586,13.8062442 6.78894914,13.4593922 6.57483434,13.2452774 C6.35922678,13.0296699 6.37531469,12.698368 6.60743351,12.5019597 L7.20623168,11.9952844 L4.53492824,9.73500519 Z M9.34723607,4.04773231 L12.0345427,0.871824417 C12.230951,0.639705597 12.6299983,0.478183559 12.9353591,0.512112542 L15.3341856,0.778648819 C15.6352846,0.812104256 15.9060209,1.07905224 15.9399499,1.38441309 L16.2064862,3.78323958 C16.2399416,4.08433851 16.0835021,4.48374784 15.8467743,4.68405599 L12.3729283,7.62346416 L9.34723607,4.04773231 Z" id="Rectangle-71" fill="#8F5D2E"></path>
                    <path d="M11.2468718,14.4124862 C10.9577781,14.5088484 10.5501395,14.4136878 10.3347765,14.1983301 L10.1428199,14.006378 C9.92817728,13.7917406 9.92626082,13.4456611 10.1418736,13.2300535 L10.1418736,13.2300535 C10.3559935,13.0159387 10.3460071,12.687044 10.1092736,12.4867358 L0.869710027,4.66883206 C0.637585611,4.47242382 0.476059678,4.0733765 0.509989478,3.76801565 L0.776532183,1.36918916 C0.809988426,1.06809023 1.07694285,0.797353872 1.38231106,0.76342489 L3.7811954,0.496888612 C4.08230159,0.463433176 4.48172055,0.619872676 4.68203352,0.856600487 L12.5001258,10.0959413 C12.6965388,10.3280601 13.0278487,10.344148 13.2434614,10.1285405 L13.2434614,10.1285405 C13.4575814,9.91442566 13.8044417,9.91412893 14.0198047,10.1294867 L14.2117614,10.3214387 C14.4264039,10.5360761 14.5243789,10.9381502 14.4259226,11.233512 L14.1933419,11.9312374 C14.0969773,12.2203241 14.1886243,12.6244371 14.4076925,12.8435 L16.3439136,14.7796744 C16.5586607,14.9944164 16.5608604,15.3403824 16.3414169,15.5598205 L15.5732846,16.3279343 C15.3571586,16.5440551 15.0121879,16.5494938 14.7931196,16.3304309 L12.8568986,14.3942566 C12.6421514,14.1795146 12.2399828,14.0814571 11.944614,14.179911 L11.2468718,14.4124862 L11.2468718,14.4124862 Z" id="Rectangle-71-Copy-6" fill="#FFCB2B"></path>
                </g>
            </g>
        </g>
    </g>
</svg>