<?xml version="1.0" encoding="UTF-8" standalone="no"?>
<svg width="12px" height="12px" viewBox="0 0 12 12" version="1.1" xmlns="http://www.w3.org/2000/svg" xmlns:xlink="http://www.w3.org/1999/xlink" xmlns:sketch="http://www.bohemiancoding.com/sketch/ns">
    <!-- Generator: Sketch 3.3.2 (12043) - http://www.bohemiancoding.com/sketch -->
    <title>UI/Coin Icon</title>
    <desc>Created with Sketch.</desc>
    <defs></defs>
    <g id="UI" stroke="none" stroke-width="1" fill="none" fill-rule="evenodd" sketch:type="MSPage">
        <g id="UC16.2.1-CHAT-WINDOWS---REQUEST-VIEW" sketch:type="MSArtboardGroup" transform="translate(-348.000000, -229.000000)">
            <g id="Duel-request" sketch:type="MSLayerGroup" transform="translate(0.000000, 213.000000)">
                <g id="Price" transform="translate(249.000000, 13.000000)" sketch:type="MSShapeGroup">
                    <g id="10000-+-UI/Coin-Icon" transform="translate(86.000000, 0.000000)">
                        <g id="UI/Coin-Icon" transform="translate(13.000000, 3.000000)">
                            <path d="M5.68421053,11.3684211 C8.82351331,11.3684211 11.3684211,8.82351331 11.3684211,5.68421053 C11.3684211,2.54490774 8.82351331,0 5.68421053,0 C2.54490774,0 0,2.54490774 0,5.68421053 C0,8.82351331 2.54490774,11.3684211 5.68421053,11.3684211 L5.68421053,11.3684211 Z" id="Path" fill="#FFAB2B"></path>
                            <path d="M11.3684211,5.68421053 C11.3684209,1.57894728 9.11057557,5.68421046 5.97127278,5.68421046 C2.83196999,5.68421046 0.234755882,7.43491474 0.631578947,8.21052621 C1.57273884,10.0500725 3.47597173,11.3684211 5.68421053,11.3684211 C8.82351331,11.3684211 11.3684211,8.82351331 11.3684211,5.68421053 Z" id="Path-Copy-4" fill="#FF8E2B"></path>
                            <path d="M8.84210526,5.68421053 C8.84210526,3.94015342 7.42826763,2.52631579 5.68421053,2.52631579 C3.94015342,2.52631579 2.52631579,3.94015342 2.52631579,5.68421053 C2.52631579,7.42826763 3.94015342,8.84210526 5.68421053,8.84210526 C7.42826763,8.84210526 8.84210526,7.42826763 8.84210526,5.68421053 Z" id="Path-Copy-3" stroke="#644B4B" fill="#FFD52B"></path>
                        </g>
                    </g>
                </g>
            </g>
        </g>
    </g>
</svg>