<?xml version="1.0" encoding="UTF-8" standalone="no"?>
<svg width="54px" height="54px" viewBox="0 0 54 54" version="1.1" xmlns="http://www.w3.org/2000/svg" xmlns:xlink="http://www.w3.org/1999/xlink" xmlns:sketch="http://www.bohemiancoding.com/sketch/ns">
    <!-- Generator: Sketch 3.3.2 (12043) - http://www.bohemiancoding.com/sketch -->
    <title>Send button</title>
    <desc>Created with Sketch.</desc>
    <defs></defs>
    <g id="UI" stroke="none" stroke-width="1" fill="none" fill-rule="evenodd" sketch:type="MSPage">
        <g id="UC16-CHAT-WINDOW-+-CONTROLS" sketch:type="MSArtboardGroup" transform="translate(-306.000000, -537.000000)">
            <g id="Text-input" sketch:type="MSLayerGroup" transform="translate(0.000000, 510.000000)">
                <g id="Send-button" transform="translate(306.000000, 27.000000)" sketch:type="MSShapeGroup">
                    <circle id="Oval-4970" fill="#FFCB2B" cx="27" cy="27" r="27"></circle>
                    <g id="Send-icon" transform="translate(13.000000, 21.000000)" fill="#FFFFFF">
                        <path d="M8,2.00104344 C8,2.55275191 8.41885102,3.15706913 8.93335855,3.35000946 L15.0666414,5.64999054 C15.5821211,5.84329543 16.418851,5.84293087 16.9333586,5.64999054 L23.0666414,3.35000946 C23.5821211,3.15670457 24,2.55733967 24,2.00104344 L24,0.998956561 C24,0.447248087 23.5553691,-8.5975671e-13 22.9991283,-8.5975671e-13 L9.00087166,-8.5975671e-13 C8.4481055,-8.5975671e-13 8,0.442660332 8,0.998956561 L8,2.00104344 Z" id="Path-1800"></path>
                        <path d="M16.9333586,6.64999054 C16.4178789,6.84329543 15.581149,6.84293087 15.0666414,6.64999054 L8.93335855,4.35000946 C8.41787886,4.15670457 8,4.4463114 8,4.99754465 L8,12.0024554 C8,12.553384 8.44463086,13 9.00087166,13 L22.9991283,13 C23.5518945,13 24,12.5536886 24,12.0024554 L24,4.99754465 C24,4.44661595 23.581149,4.15706913 23.0666414,4.35000946 L16.9333586,6.64999054 Z" id="Path-1800-Copy"></path>
                        <path d="M6.0000002,1.99895656 C6.0000002,1.44724809 5.549025,1 5.00922219,1 L0.990777992,1 C0.44358641,1 0.245239241,1.36785889 0.557111479,1.83566725 L1.44288846,3.16433275 C1.75057264,3.62585903 2.44335315,4 3.00936891,4 L4.99063124,4 C5.54809032,4 6.0000002,3.55733967 6.0000002,3.00104344 L6.0000002,1.99895656 Z" id="Path-1797"></path>
                        <path d="M6.00000018,9.99895656 C6.00000019,9.44724809 5.55733984,9 5.00104357,9 L3.99895662,9 C3.44724811,9 3.28678178,9.34413815 3.64381211,9.77257454 L4.85618788,11.2274255 C5.2117555,11.6541066 5.95385754,12 6.00000013,12 L6.00000013,12 L6.00000018,9.99895656 Z" id="Path-1797-Copy"></path>
                        <path d="M6.0000002,5.99895656 C6.0000002,5.44724809 5.55628353,5 5.00019266,5 L1.99980752,5 C1.44762907,5 1.24523924,5.36785889 1.55711148,5.83566725 L2.44288846,7.16433275 C2.75057264,7.62585903 3.44266032,8 3.99895659,8 L5.00104356,8 C5.55275208,8 6.0000002,7.55733967 6.0000002,7.00104344 L6.0000002,5.99895656 Z" id="Path-1797-Copy-2"></path>
                    </g>
                </g>
            </g>
        </g>
    </g>
</svg>