<?xml version="1.0" encoding="UTF-8" standalone="no"?>
<svg width="17px" height="17px" viewBox="0 0 17 17" version="1.1" xmlns="http://www.w3.org/2000/svg" xmlns:xlink="http://www.w3.org/1999/xlink" xmlns:sketch="http://www.bohemiancoding.com/sketch/ns">
    <!-- Generator: Sketch 3.3.2 (12043) - http://www.bohemiancoding.com/sketch -->
    <title>Rectangle 71</title>
    <desc>Created with Sketch.</desc>
    <defs></defs>
    <g id="UI" stroke="none" stroke-width="1" fill="none" fill-rule="evenodd" sketch:type="MSPage">
        <g id="UC16-CHAT-WINDOW-+-CONTROLS" sketch:type="MSArtboardGroup" transform="translate(-298.000000, -34.000000)" fill="#FFFFFF">
            <path d="M302.534928,43.7350052 L302.216639,44.1111652 C302.016331,44.347893 301.687436,44.3578792 301.473321,44.1437644 C301.257714,43.9281568 300.911634,43.9300732 300.696997,44.1447106 L300.505045,44.3366627 C300.289687,44.5520205 300.194526,44.9596492 300.290889,45.2487359 L300.523464,45.9464613 C300.621918,46.241823 300.52386,46.643982 300.309118,46.858724 L298.372944,48.7948983 C298.153881,49.0139612 298.15932,49.3589236 298.37544,49.5750444 L299.143554,50.3431583 C299.362992,50.5625964 299.708958,50.5603968 299.9237,50.3456548 L301.859875,48.4094805 C302.078938,48.1904175 302.483051,48.0987727 302.772137,48.195135 L303.469863,48.4277101 C303.765225,48.526164 304.167299,48.4281914 304.381936,48.213554 L304.573888,48.021602 C304.789246,47.8062442 304.788949,47.4593922 304.574834,47.2452774 C304.359227,47.0296699 304.375315,46.698368 304.607434,46.5019597 L305.206232,45.9952844 L302.534928,43.7350052 L302.534928,43.7350052 Z M307.347236,38.0477323 L310.034543,34.8718244 C310.230951,34.6397056 310.629998,34.4781836 310.935359,34.5121125 L313.334186,34.7786488 C313.635285,34.8121043 313.906021,35.0790522 313.93995,35.3844131 L314.206486,37.7832396 C314.239942,38.0843385 314.083502,38.4837478 313.846774,38.684056 L310.372928,41.6234642 L307.347236,38.0477323 L307.347236,38.0477323 Z M309.246872,48.4124862 C308.957778,48.5088484 308.55014,48.4136878 308.334777,48.1983301 L308.14282,48.006378 C307.928177,47.7917406 307.926261,47.4456611 308.141874,47.2300535 C308.355994,47.0159387 308.346007,46.687044 308.109274,46.4867358 L298.86971,38.6688321 C298.637586,38.4724238 298.47606,38.0733765 298.509989,37.7680157 L298.776532,35.3691892 C298.809988,35.0680902 299.076943,34.7973539 299.382311,34.7634249 L301.781195,34.4968886 C302.082302,34.4634332 302.481721,34.6198727 302.682034,34.8566005 L310.500126,44.0959413 C310.696539,44.3280601 311.027849,44.344148 311.243461,44.1285405 C311.457581,43.9144257 311.804442,43.9141289 312.019805,44.1294867 L312.211761,44.3214387 C312.426404,44.5360761 312.524379,44.9381502 312.425923,45.233512 L312.193342,45.9312374 C312.096977,46.2203241 312.188624,46.6244371 312.407693,46.8435 L314.343914,48.7796744 C314.558661,48.9944164 314.56086,49.3403824 314.341417,49.5598205 L313.573285,50.3279343 C313.357159,50.5440551 313.012188,50.5494938 312.79312,50.3304309 L310.856899,48.3942566 C310.642151,48.1795146 310.239983,48.0814571 309.944614,48.179911 L309.246872,48.4124862 Z" id="Rectangle-71" sketch:type="MSShapeGroup"></path>
        </g>
    </g>
</svg>