<?xml version="1.0" encoding="UTF-8" standalone="no"?>
<svg width="15px" height="11px" viewBox="0 0 15 11" version="1.1" xmlns="http://www.w3.org/2000/svg" xmlns:xlink="http://www.w3.org/1999/xlink" xmlns:sketch="http://www.bohemiancoding.com/sketch/ns">
    <!-- Generator: Sketch 3.3.2 (12043) - http://www.bohemiancoding.com/sketch -->
    <title>Shape</title>
    <desc>Created with Sketch.</desc>
    <defs></defs>
    <g id="UI" stroke="none" stroke-width="1" fill="none" fill-rule="evenodd" sketch:type="MSPage">
        <g id="UC16-CHAT-WINDOW-+-CONTROLS" sketch:type="MSArtboardGroup" transform="translate(-16.000000, -37.000000)" fill="#FFFFFF">
            <g id="UI/Nav-Bar-Back" sketch:type="MSLayerGroup">
                <path d="M20.7928932,37.7928932 L16.7928932,41.7928932 C16.4023689,42.1834175 16.4023689,42.8165825 16.7928932,43.2071068 L20.7928932,47.2071068 C21.1834175,47.5976311 21.8165825,47.5976311 22.2071068,47.2071068 C22.5976311,46.8165825 22.5976311,46.1834175 22.2071068,45.7928932 L18.2071068,41.7928932 L18.2071068,43.2071068 L22.2071068,39.2071068 C22.5976311,38.8165825 22.5976311,38.1834175 22.2071068,37.7928932 C21.8165825,37.4023689 21.1834175,37.4023689 20.7928932,37.7928932 L20.7928932,37.7928932 Z M17.5,43.5 L29.5,43.5 C30.0522847,43.5 30.5,43.0522847 30.5,42.5 C30.5,41.9477153 30.0522847,41.5 29.5,41.5 L17.5,41.5 C16.9477153,41.5 16.5,41.9477153 16.5,42.5 C16.5,43.0522847 16.9477153,43.5 17.5,43.5 L17.5,43.5 Z" id="Shape" sketch:type="MSShapeGroup"></path>
            </g>
        </g>
    </g>
</svg>