<?xml version="1.0" encoding="UTF-8" standalone="no"?>
<svg width="16px" height="16px" viewBox="0 0 16 16" version="1.1" xmlns="http://www.w3.org/2000/svg" xmlns:xlink="http://www.w3.org/1999/xlink" xmlns:sketch="http://www.bohemiancoding.com/sketch/ns">
    <!-- Generator: Sketch 3.3.2 (12043) - http://www.bohemiancoding.com/sketch -->
    <title>Shape Copy 2</title>
    <desc>Created with Sketch.</desc>
    <defs></defs>
    <g id="UI" stroke="none" stroke-width="1" fill="none" fill-rule="evenodd" sketch:type="MSPage">
        <g id="UC16-CHAT-WINDOW-+-CONTROLS" sketch:type="MSArtboardGroup" transform="translate(-343.000000, -34.000000)" fill="#FFFFFF">
            <g id="UI/Nav-Bar---COG" sketch:type="MSLayerGroup">
                <path d="M358.639407,40.6136498 L356.780917,40.3706005 C356.653207,39.9159052 356.471604,39.4785472 356.240028,39.0660502 L357.383212,37.5789676 C357.47336,37.4615319 357.474013,37.2982996 357.384845,37.1805368 C356.93835,36.5900871 356.412485,36.0640799 355.822276,35.6175626 C355.704038,35.5282591 355.541053,35.5285862 355.423468,35.6188711 L353.936676,36.7611703 C353.523497,36.529243 353.08582,36.3473649 352.630833,36.2191343 L352.387498,34.3604446 C352.368228,34.2138953 352.253256,34.0977681 352.106602,34.0774867 C351.360919,33.9744443 350.642347,33.9741172 349.896991,34.0768325 C349.750337,34.0971139 349.635039,34.212914 349.615768,34.3597904 L349.372433,36.2171716 C348.916466,36.3454022 348.478137,36.5269532 348.063977,36.7595347 L346.576859,35.6165812 C346.459274,35.5262964 346.296289,35.5256422 346.178051,35.6149456 C345.909893,35.8177594 345.649573,36.0421629 345.401666,36.2845581 L345.280488,36.4059192 C345.041726,36.6496228 344.817662,36.9090281 344.615482,37.1759571 C344.525987,37.294047 344.52664,37.4576065 344.616788,37.5750422 L345.759646,39.0611434 C345.526763,39.4756031 345.344507,39.9142696 345.216143,40.3709276 L343.357653,40.614304 C343.210672,40.6336041 343.095048,40.7484228 343.074797,40.8952992 C343.030049,41.2191469 343.004899,41.5511726 343,41.8874509 L343,42.1164341 C343.004899,42.4478056 343.030049,42.7798313 343.074797,43.103679 C343.095048,43.2505554 343.210999,43.3657013 343.357653,43.3850013 L345.216143,43.6283777 C345.344507,44.0847086 345.526763,44.5237022 345.759646,44.9378348 L344.616788,46.4242631 C344.52664,46.5416988 344.525987,46.704604 344.615482,46.8230211 C344.817662,47.0902772 345.0414,47.3496825 345.282448,47.595676 L345.403952,47.7173642 C345.649573,47.9574695 345.909893,48.1818731 346.178051,48.3846868 C346.295962,48.4736631 346.459274,48.473336 346.576859,48.3830512 L348.063977,47.2400977 C348.478137,47.4726792 348.916466,47.6542302 349.372433,47.7821337 L349.615768,49.6398421 C349.635039,49.7867185 349.75001,49.9025186 349.896991,49.9231271 C350.268689,49.9741576 350.639081,50 350.998694,50 C351.35994,50 351.732617,49.9738305 352.106602,49.9221457 C352.253256,49.9018643 352.368228,49.7857371 352.387498,49.6391878 L352.630833,47.7804982 C353.08582,47.6522675 353.523497,47.4707165 353.936676,47.2384621 L355.423468,48.3810885 C355.541053,48.4713733 355.704038,48.4720275 355.822276,48.3827241 C356.412485,47.9358796 356.93835,47.4098724 357.384845,46.8197499 C357.474013,46.7019871 357.47336,46.5384276 357.383212,46.4209919 L356.240028,44.9339093 C356.471604,44.5210853 356.653207,44.0837273 356.780917,43.6293591 L358.639407,43.3863097 C358.786388,43.3670097 358.902339,43.2518639 358.92259,43.1049875 C358.97387,42.7320719 359,42.3604648 359,42.0003069 C359,41.6394947 358.97387,41.2675605 358.92259,40.894645 C358.902339,40.7480957 358.786388,40.6326227 358.639407,40.6136498 Z M351.069881,38.5767296 C349.140239,38.5767296 347.570061,40.1471336 347.570061,42.0769102 C347.570061,44.0066868 349.140239,45.5767296 351.069881,45.5767296 C352.999883,45.5767296 354.570061,44.0063256 354.570061,42.0769102 C354.5697,40.1467724 352.999523,38.5767296 351.069881,38.5767296 Z" id="Shape-Copy-2" sketch:type="MSShapeGroup"></path>
            </g>
        </g>
    </g>
</svg>